<svg width="14" height="17" viewBox="0 0 14 17" fill="none" xmlns="http://www.w3.org/2000/svg">
<path d="M8.41823 0.0377004C7.81701 -0.131016 7.34365 0.297265 7.18043 0.712568L7.0036 1.16339C5.6393 4.64018 4.39401 7.81643 1.14649 9.4674C0.397685 9.84855 -0.12396 10.673 0.0256647 11.5753L0.308591 13.2803C0.387816 13.7583 0.600427 14.2039 0.921736 14.5654C1.24304 14.9269 1.65987 15.1895 2.12381 15.3226L7.35386 16.8226C7.96243 16.9972 8.60038 17.0436 9.22764 16.9587C9.8549 16.8739 10.4579 16.6597 10.9988 16.3296C11.5397 15.9995 12.0068 15.5607 12.3708 15.0406C12.7347 14.5205 12.9877 13.9305 13.1137 13.3076L13.9489 9.17778C14.0242 8.80572 14.0162 8.4215 13.9255 8.05293C13.8348 7.68435 13.6636 7.34064 13.4244 7.04665C13.1852 6.75266 12.8839 6.51576 12.5424 6.35308C12.2008 6.19041 11.8275 6.10602 11.4495 6.10604H9.97568C10.2103 5.07939 10.3185 3.90862 10.2117 2.87515C10.0859 1.66612 9.62746 0.375817 8.41823 0.0377004Z" fill="#8646EE"/>
</svg>
